<?xml version="1.0" encoding="utf-8"?>
<!-- Generator: Adobe Illustrator 24.0.2, SVG Export Plug-In . SVG Version: 6.00 Build 0)  -->
<svg version="1.1" id="Capa_1" xmlns="http://www.w3.org/2000/svg" xmlns:xlink="http://www.w3.org/1999/xlink" x="0px" y="0px"
	 viewBox="0 0 98.75 25.04" style="enable-background:new 0 0 98.75 25.04;" xml:space="preserve">
<style type="text/css">
	.st0{fill:#FBCD18;}
	.st1{fill:#333334;}
	.st2{fill:#FFFFFF;}
	.st3{fill:#3C3C3B;}
	.st4{fill:#FFFFFF;stroke:#878787;stroke-miterlimit:10;}
</style>
<g>
	<g>
		<path class="st0" d="M19.67,16.03l0.82-1.24h9.1c1.22,0,2.22-0.97,2.27-2.18c0-0.03,0-0.06,0-0.1s0-0.06,0-0.1
			c-0.05-1.21-1.05-2.18-2.27-2.18H11.38v0c-1.26,0-2.27,1.02-2.27,2.28s1.02,2.27,2.27,2.28v0h3.56l-3.73,5.58
			c-3.78-0.62-6.66-3.9-6.66-7.86c0-4.4,3.57-7.97,7.97-7.97h3.41l0,0h0l2.16-3.24L18.98,0h-6.45c-0.38,0-0.76,0.02-1.14,0.05
			C5,0.63,0,5.99,0,12.52c0,5.83,3.98,10.72,9.37,12.12c1.01,0.26,2.06,0.4,3.15,0.4c0.4,0,0.79-0.02,1.18-0.06l3-4.5l1.83-2.75
			L19.67,16.03z"/>
		<path class="st0" d="M43.26,12.52c0-6.53-5-11.89-11.38-12.47C31.5,0.02,31.12,0,30.73,0h-2.64h-4.56L20.5,4.55l2.77,0l1.79,0l0,0
			h2.27h2.28h1.14c4.4,0,7.97,3.57,7.97,7.97c0,0,0,0,0,0c0,0,0,0,0,0c0,4.4-3.57,7.97-7.97,7.97h-3.41l0,0h-1.51h-4.56l-3.04,4.55
			l2.05,0l2.5,0l0,0h7.96c0.38,0,0.76-0.02,1.14-0.05C38.25,24.41,43.26,19.05,43.26,12.52C43.26,12.52,43.26,12.52,43.26,12.52
			C43.26,12.52,43.26,12.52,43.26,12.52z"/>
	</g>
	<g>
		<g>
			<g>
				<path class="st1" d="M55.01,4.82h1.69v3.82c-0.49,0.39-1.07,0.69-1.73,0.9c-0.66,0.21-1.33,0.32-2.03,0.32
					c-0.98,0-1.86-0.21-2.64-0.64c-0.79-0.42-1.4-1.01-1.85-1.76C48,6.72,47.78,5.87,47.78,4.93c0-0.94,0.22-1.79,0.67-2.53
					c0.45-0.75,1.07-1.34,1.86-1.76C51.09,0.21,51.98,0,52.97,0c0.8,0,1.53,0.13,2.19,0.4c0.66,0.26,1.21,0.65,1.66,1.16l-1.12,1.1
					c-0.73-0.73-1.61-1.1-2.64-1.1c-0.68,0-1.28,0.14-1.8,0.42c-0.53,0.28-0.94,0.68-1.23,1.19c-0.3,0.51-0.45,1.1-0.45,1.75
					c0,0.64,0.15,1.21,0.45,1.73c0.3,0.51,0.71,0.91,1.23,1.21c0.53,0.29,1.12,0.44,1.79,0.44c0.75,0,1.41-0.16,1.97-0.49V4.82z"/>
				<path class="st1" d="M60.07,8.75c-0.74-0.74-1.11-1.81-1.11-3.2V0.14h1.78v5.34c0,1.88,0.81,2.82,2.44,2.82
					c1.62,0,2.42-0.94,2.42-2.82V0.14h1.75v5.41c0,1.39-0.37,2.45-1.1,3.2c-0.74,0.74-1.77,1.12-3.09,1.12
					C61.84,9.86,60.81,9.49,60.07,8.75z"/>
				<path class="st1" d="M71.63,1.77v2.92h4.63v1.51h-4.63v3.67h-1.78V0.27h7v1.49H71.63z"/>
				<path class="st1" d="M85.22,9.86l-1.96-2.81c-0.08,0.01-0.21,0.01-0.37,0.01h-2.16v2.79h-1.78V0.27h3.95
					c0.83,0,1.56,0.14,2.17,0.41c0.62,0.27,1.09,0.67,1.42,1.18s0.49,1.12,0.49,1.82c0,0.72-0.18,1.34-0.53,1.86
					c-0.35,0.52-0.86,0.91-1.51,1.16l2.21,3.15H85.22z M84.58,2.27c-0.4-0.33-0.99-0.49-1.77-0.49h-2.08V5.6h2.08
					c0.78,0,1.37-0.17,1.77-0.5c0.4-0.33,0.6-0.81,0.6-1.42C85.18,3.07,84.98,2.6,84.58,2.27z"/>
				<path class="st1" d="M95.92,7.64h-4.8l-0.95,2.22h-1.84l4.32-9.59h1.75l4.33,9.59h-1.86L95.92,7.64z M95.34,6.25l-1.81-4.19
					l-1.79,4.19H95.34z"/>
			</g>
			<g>
				<path class="st1" d="M53.89,15.86c0.62,0.27,1.09,0.67,1.42,1.18c0.33,0.51,0.49,1.12,0.49,1.82c0,0.69-0.16,1.3-0.49,1.82
					c-0.33,0.52-0.8,0.91-1.42,1.19c-0.62,0.27-1.34,0.41-2.17,0.41h-2.16v2.77h-1.78v-9.59h3.95
					C52.55,15.45,53.28,15.59,53.89,15.86z M53.41,20.28c0.4-0.33,0.6-0.8,0.6-1.41c0-0.61-0.2-1.08-0.6-1.41
					c-0.4-0.33-0.99-0.49-1.77-0.49h-2.08v3.81h2.08C52.42,20.77,53.01,20.6,53.41,20.28z"/>
				<path class="st1" d="M64.78,23.55v1.49h-7.19v-9.59h7v1.49h-5.22v2.49H64v1.47h-4.63v2.64H64.78z"/>
				<path class="st1" d="M73.04,25.04l-1.96-2.81c-0.08,0.01-0.21,0.01-0.37,0.01h-2.16v2.79h-1.78v-9.59h3.95
					c0.83,0,1.56,0.14,2.17,0.41c0.62,0.27,1.09,0.67,1.42,1.18c0.33,0.51,0.49,1.12,0.49,1.82c0,0.72-0.18,1.34-0.53,1.86
					c-0.35,0.52-0.86,0.91-1.51,1.16l2.21,3.15H73.04z M72.4,17.45c-0.4-0.33-0.99-0.49-1.77-0.49h-2.08v3.82h2.08
					c0.78,0,1.37-0.17,1.77-0.5c0.4-0.33,0.6-0.81,0.6-1.42C73,18.25,72.8,17.78,72.4,17.45z"/>
				<path class="st1" d="M77.81,23.93c-0.74-0.74-1.11-1.81-1.11-3.2v-5.41h1.78v5.34c0,1.88,0.81,2.82,2.44,2.82
					c1.62,0,2.42-0.94,2.42-2.82v-5.34h1.75v5.41c0,1.39-0.37,2.45-1.1,3.2c-0.74,0.74-1.77,1.12-3.09,1.12
					C79.58,25.04,78.55,24.67,77.81,23.93z M81.62,12.66h2.01l-2.38,1.88h-1.48L81.62,12.66z"/>
			</g>
		</g>
		
			<rect x="54.75" y="4.57" transform="matrix(6.123234e-17 -1 1 6.123234e-17 49.9312 61.2629)" class="st1" width="1.68" height="2.2"/>
		
			<rect x="53.66" y="4.57" transform="matrix(6.123234e-17 -1 1 6.123234e-17 48.832 60.1637)" class="st1" width="1.68" height="2.2"/>
	</g>
</g>
</svg>
